<svg width="21" height="24" viewBox="0 0 21 24" fill="none" xmlns="http://www.w3.org/2000/svg">
<path d="M15.1182 0H15.2889C15.4259 1.69253 14.7799 2.95719 13.9947 3.87301C13.2244 4.78251 12.1694 5.6646 10.4632 5.53076C10.3494 3.86247 10.9965 2.69161 11.7805 1.77789C12.5077 0.92636 13.8409 0.168621 15.1182 0ZM20.2832 17.6167V17.6641C19.8037 19.1163 19.1198 20.361 18.2851 21.516C17.5231 22.5646 16.5894 23.9758 14.9222 23.9758C13.4815 23.9758 12.5246 23.0494 11.0481 23.0241C9.48625 22.9988 8.62734 23.7987 7.19933 24H6.71244C5.66383 23.8482 4.81756 23.0178 4.20104 22.2695C2.3831 20.0585 0.978281 17.2025 0.716919 13.5476V12.4737C0.827576 9.85799 2.09856 7.73126 3.78792 6.70057C4.67951 6.15255 5.90517 5.68568 7.26994 5.89435C7.85485 5.98498 8.4524 6.18522 8.97617 6.38335C9.47255 6.5741 10.0933 6.9124 10.6814 6.89448C11.0797 6.88289 11.476 6.67527 11.8775 6.52878C13.0536 6.10407 14.2066 5.61718 15.7263 5.84587C17.5526 6.12199 18.8489 6.93347 19.6499 8.18548C18.1049 9.16875 16.8834 10.6505 17.0921 13.1809C17.2776 15.4794 18.6139 16.8241 20.2832 17.6167Z" fill="black"/>
</svg>
