<svg width="14" height="14" viewBox="0 0 14 14" fill="none" xmlns="http://www.w3.org/2000/svg">
<path d="M12.542 9.04199C12.7053 9.04199 12.8337 9.17033 12.8337 9.33366V9.91699C12.8337 10.8853 12.052 11.667 11.0837 11.667C11.0837 10.7045 10.2962 9.91699 9.33366 9.91699C8.37116 9.91699 7.58366 10.7045 7.58366 11.667H6.41699C6.41699 10.7045 5.62949 9.91699 4.66699 9.91699C3.70449 9.91699 2.91699 10.7045 2.91699 11.667C1.94866 11.667 1.16699 10.8853 1.16699 9.91699V8.75033C1.16699 8.42949 1.42949 8.16699 1.75033 8.16699H7.29199C8.09699 8.16699 8.75033 7.51366 8.75033 6.70866V3.50033C8.75033 3.17949 9.01283 2.91699 9.33366 2.91699H9.82366C10.2437 2.91699 10.6287 3.14449 10.8387 3.50616L11.212 4.15949C11.2645 4.25283 11.1945 4.37533 11.0837 4.37533C10.2787 4.37533 9.62533 5.02866 9.62533 5.83366V7.58366C9.62533 8.38866 10.2787 9.04199 11.0837 9.04199H12.542Z" fill="#F77F00"/>
<path d="M4.66667 12.8333C5.311 12.8333 5.83333 12.311 5.83333 11.6667C5.83333 11.0223 5.311 10.5 4.66667 10.5C4.02233 10.5 3.5 11.0223 3.5 11.6667C3.5 12.311 4.02233 12.8333 4.66667 12.8333Z" fill="#F77F00"/>
<path d="M9.33366 12.8333C9.97799 12.8333 10.5003 12.311 10.5003 11.6667C10.5003 11.0223 9.97799 10.5 9.33366 10.5C8.68933 10.5 8.16699 11.0223 8.16699 11.6667C8.16699 12.311 8.68933 12.8333 9.33366 12.8333Z" fill="#F77F00"/>
<path d="M12.8333 7.30917V8.16667H11.0833C10.7625 8.16667 10.5 7.90417 10.5 7.58333V5.83333C10.5 5.5125 10.7625 5.25 11.0833 5.25H11.8358L12.6817 6.73167C12.7808 6.90667 12.8333 7.105 12.8333 7.30917Z" fill="#F77F00"/>
<path d="M7.62935 1.16699H3.31852C2.27435 1.16699 1.39935 1.91366 1.20685 2.90533H3.75602C3.97768 2.90533 4.15268 3.08616 4.15268 3.30783C4.15268 3.52949 3.97768 3.70449 3.75602 3.70449H1.16602V4.50949H2.68268C2.90435 4.50949 3.08518 4.69033 3.08518 4.91199C3.08518 5.13366 2.90435 5.30866 2.68268 5.30866H1.16602V6.11366H1.61518C1.83685 6.11366 2.01768 6.29449 2.01768 6.51616C2.01768 6.73783 1.83685 6.91283 1.61518 6.91283H1.16602V7.04699C1.16602 7.36783 1.42852 7.63033 1.74935 7.63033H7.08685C7.68185 7.63033 8.16602 7.14616 8.16602 6.55116V1.70366C8.16602 1.40616 7.92685 1.16699 7.62935 1.16699Z" fill="#F77F00"/>
<path d="M1.20717 2.90527H1.11967H0.548008C0.326341 2.90527 0.145508 3.08611 0.145508 3.30777C0.145508 3.52944 0.326341 3.70444 0.548008 3.70444H1.07884H1.16634V3.31944C1.16634 3.17944 1.18384 3.03944 1.20717 2.90527Z" fill="#F77F00"/>
<path d="M1.07884 4.50977H0.548008C0.326341 4.50977 0.145508 4.6906 0.145508 4.91227C0.145508 5.13393 0.326341 5.30893 0.548008 5.30893H1.07884H1.16634V4.50977H1.07884Z" fill="#F77F00"/>
<path d="M1.07884 6.11426H0.548008C0.326341 6.11426 0.145508 6.29509 0.145508 6.51676C0.145508 6.73842 0.326341 6.91342 0.548008 6.91342H1.07884H1.16634V6.11426H1.07884Z" fill="#F77F00"/>
</svg>
