<svg width="16" height="16" viewBox="0 0 16 16" fill="none" xmlns="http://www.w3.org/2000/svg">
<path fill-rule="evenodd" clip-rule="evenodd" d="M5.33333 1.33331V2.66665H10.6667V1.33331H12V2.75066C13.1502 3.04669 14 4.09075 14 5.33331V12C14 13.4727 12.8061 14.6666 11.3333 14.6666H4.66667C3.19391 14.6666 2 13.4727 2 12V5.33331C2 4.09075 2.84985 3.04669 4 2.75066L4 1.33331H5.33333ZM3.33333 5.33331C3.33333 4.59693 3.93029 3.99998 4.66667 3.99998H11.3333C12.0697 3.99998 12.6667 4.59693 12.6667 5.33331H3.33333ZM3.33333 6.66665V12C3.33333 12.7364 3.93029 13.3333 4.66667 13.3333H11.3333C12.0697 13.3333 12.6667 12.7364 12.6667 12V6.66665H3.33333Z" fill="white"/>
</svg>
