<svg width="18" height="18" viewBox="0 0 18 18" fill="White" xmlns="http://www.w3.org/2000/svg">
<path d="M2.25 16.5H15.75" stroke="#FFFFFF" stroke-width="1.125" stroke-linecap="round" stroke-linejoin="round"/>
<path d="M4.19998 6.28491H3C2.5875 6.28491 2.25 6.62241 2.25 7.03491V13.4999C2.25 13.9124 2.5875 14.2499 3 14.2499H4.19998C4.61248 14.2499 4.94998 13.9124 4.94998 13.4999V7.03491C4.94998 6.62241 4.61248 6.28491 4.19998 6.28491Z" stroke="#FFFFFF" stroke-width="1.125" stroke-linecap="round" stroke-linejoin="round"/>
<path d="M9.60037 3.89258H8.40039C7.98789 3.89258 7.65039 4.23008 7.65039 4.64258V13.5001C7.65039 13.9126 7.98789 14.2501 8.40039 14.2501H9.60037C10.0129 14.2501 10.3504 13.9126 10.3504 13.5001V4.64258C10.3504 4.23008 10.0129 3.89258 9.60037 3.89258Z" stroke="#FFFFFF" stroke-width="1.125" stroke-linecap="round" stroke-linejoin="round"/>
<path d="M14.9998 1.5H13.7998C13.3873 1.5 13.0498 1.8375 13.0498 2.25V13.5C13.0498 13.9125 13.3873 14.25 13.7998 14.25H14.9998C15.4123 14.25 15.7498 13.9125 15.7498 13.5V2.25C15.7498 1.8375 15.4123 1.5 14.9998 1.5Z" stroke="#FFFFFF" stroke-width="1.125" stroke-linecap="round" stroke-linejoin="round"/>
</svg>
