<svg width="14" height="14" viewBox="0 0 14 14" fill="none" xmlns="http://www.w3.org/2000/svg">
<path d="M12.3962 5.33764C11.0487 3.22014 9.07699 2.00098 7.00033 2.00098C5.96199 2.00098 4.95283 2.30431 4.03116 2.87014C3.10949 3.44181 2.28116 4.27598 1.60449 5.33764C1.02116 6.25348 1.02116 7.74098 1.60449 8.65681C2.95199 10.7801 4.92366 11.9935 7.00033 11.9935C8.03866 11.9935 9.04783 11.6901 9.96949 11.1243C10.8912 10.5526 11.7195 9.71848 12.3962 8.65681C12.9795 7.74681 12.9795 6.25348 12.3962 5.33764ZM7.00033 9.35681C5.69366 9.35681 4.64366 8.30098 4.64366 7.00014C4.64366 5.69931 5.69366 4.64348 7.00033 4.64348C8.30699 4.64348 9.35699 5.69931 9.35699 7.00014C9.35699 8.30098 8.30699 9.35681 7.00033 9.35681Z" fill="#F77F00"/>
<path d="M7.00039 5.33105C6.08456 5.33105 5.33789 6.07772 5.33789 6.99939C5.33789 7.91522 6.08456 8.66189 7.00039 8.66189C7.91622 8.66189 8.66872 7.91522 8.66872 6.99939C8.66872 6.08355 7.91622 5.33105 7.00039 5.33105Z" fill="#F77F00"/>
</svg>
