<svg width="25" height="24" viewBox="0 0 25 24" fill="none" xmlns="http://www.w3.org/2000/svg">
<path fill-rule="evenodd" clip-rule="evenodd" d="M20.66 12.1932C20.66 11.5905 20.6059 11.0109 20.5054 10.4546H12.5V13.7425H17.0745C16.8775 14.805 16.2786 15.7053 15.3784 16.308V18.4407H18.1254C19.7327 16.961 20.66 14.7819 20.66 12.1932Z" fill="#4285F4"/>
<path fill-rule="evenodd" clip-rule="evenodd" d="M12.5 20.5C14.795 20.5 16.7191 19.7389 18.1254 18.4407L15.3784 16.308C14.6173 16.818 13.6436 17.1193 12.5 17.1193C10.2861 17.1193 8.41224 15.6241 7.74383 13.615H4.90405V15.8173C6.30269 18.5953 9.17724 20.5 12.5 20.5Z" fill="#34A853"/>
<path fill-rule="evenodd" clip-rule="evenodd" d="M7.74384 13.6151C7.57384 13.1051 7.47725 12.5603 7.47725 12C7.47725 11.4398 7.57384 10.895 7.74384 10.385V8.18277H4.90406C4.32838 9.33027 3.99997 10.6285 3.99997 12C3.99997 13.3716 4.32838 14.6698 4.90406 15.8173L7.74384 13.6151Z" fill="#FBBC05"/>
<path fill-rule="evenodd" clip-rule="evenodd" d="M12.5 6.88072C13.7479 6.88072 14.8684 7.30958 15.7493 8.15186L18.1873 5.7139C16.7152 4.3423 14.7911 3.50003 12.5 3.50003C9.17724 3.50003 6.30269 5.40481 4.90405 8.18277L7.74383 10.385C8.41224 8.37595 10.2861 6.88072 12.5 6.88072Z" fill="#EA4335"/>
</svg>
