<svg width="24" height="24" viewBox="0 0 24 24" fill="none" xmlns="http://www.w3.org/2000/svg">
<rect width="24" height="24" rx="12" fill="#FEF2E6"/>
<path d="M11.2816 5.31785C11.7844 4.89405 12.5961 4.89405 13.0846 5.31785L14.2195 6.28757C14.435 6.46715 14.8444 6.61799 15.1318 6.61799H16.3529C17.1143 6.61799 17.7392 7.24292 17.7392 8.00433V9.22546C17.7392 9.51278 17.8901 9.91503 18.0696 10.1305L19.0394 11.2655C19.4632 11.7683 19.4632 12.58 19.0394 13.0684L18.0696 14.2033C17.8901 14.4188 17.7392 14.8211 17.7392 15.1084V16.3295C17.7392 17.091 17.1143 17.7159 16.3529 17.7159H15.1318C14.8444 17.7159 14.4422 17.8667 14.2267 18.0463L13.0918 19.016C12.5889 19.4398 11.7773 19.4398 11.2888 19.016L10.1539 18.0463C9.93838 17.8667 9.52894 17.7159 9.2488 17.7159H7.99176C7.23035 17.7159 6.60542 17.091 6.60542 16.3295V15.1012C6.60542 14.8211 6.46176 14.4117 6.28218 14.2033L5.31246 13.0612C4.89585 12.5656 4.89585 11.7611 5.31246 11.2655L6.28218 10.1233C6.46176 9.90785 6.60542 9.5056 6.60542 9.22546V8.01151C6.60542 7.25011 7.23035 6.62518 7.99176 6.62518H9.23444C9.52176 6.62518 9.92401 6.47433 10.1395 6.29475L11.2816 5.31785Z" stroke="#F77F00" stroke-width="1.07746" stroke-linecap="round" stroke-linejoin="round"/>
<path d="M12 9.2207V12.6901" stroke="#F77F00" stroke-width="1.07746" stroke-linecap="round" stroke-linejoin="round"/>
<path d="M11.9951 14.873H12.0016" stroke="#F77F00" stroke-width="1.43662" stroke-linecap="round" stroke-linejoin="round"/>
</svg>
