<svg width="39" height="40" viewBox="0 0 39 40" fill="none" xmlns="http://www.w3.org/2000/svg">
<path d="M30.9502 31.3115C37.2062 25.0555 37.2062 14.9275 30.9502 8.6875" stroke="#F77F00" stroke-width="2.4" stroke-linecap="round" stroke-linejoin="round"/>
<path d="M8.32481 8.6875C2.06881 14.9435 2.06881 25.0715 8.32481 31.3115" stroke="#F77F00" stroke-width="2.4" stroke-linecap="round" stroke-linejoin="round"/>
<path d="M14.3574 35.0557C16.0694 35.6477 17.8454 35.9357 19.6374 35.9357C21.4294 35.9197 23.2054 35.6477 24.9174 35.0557" stroke="#F77F00" stroke-width="2.4" stroke-linecap="round" stroke-linejoin="round"/>
<path d="M14.3574 4.94355C16.0694 4.35155 17.8454 4.06348 19.6374 4.06348C21.4294 4.06348 23.2054 4.35155 24.9174 4.94355" stroke="#F77F00" stroke-width="2.4" stroke-linecap="round" stroke-linejoin="round"/>
<path d="M14.4219 20.0002V17.3282C14.4219 14.0002 16.7739 12.6402 19.6539 14.3042L21.9739 15.6483L24.2939 16.9922C27.1739 18.6562 27.1739 21.3763 24.2939 23.0403L21.9739 24.3842L19.6539 25.7282C16.7739 27.3922 14.4219 26.0322 14.4219 22.7042V20.0002Z" stroke="#F77F00" stroke-width="2.4" stroke-miterlimit="10" stroke-linecap="round" stroke-linejoin="round"/>
</svg>
