<svg width="16" height="18" viewBox="0 0 16 18" fill="none" xmlns="http://www.w3.org/2000/svg">
<path fill-rule="evenodd" clip-rule="evenodd" d="M4.54571 17.3893L4.87286 15.408L4.14409 15.3918H0.664062L3.08256 0.770245C3.09009 0.72597 3.11445 0.684868 3.15002 0.65563C3.18577 0.626391 3.23133 0.610352 3.27899 0.610352H9.14685C11.095 0.610352 12.4394 0.996803 13.1412 1.75968C13.4702 2.11756 13.6798 2.49165 13.7813 2.90317C13.8876 3.33506 13.8894 3.851 13.7857 4.48038L13.7781 4.52616V4.92949L14.1072 5.10726C14.3842 5.24744 14.6045 5.40783 14.7734 5.59145C15.0548 5.89754 15.2369 6.2865 15.3138 6.74747C15.3934 7.22163 15.3671 7.78602 15.2369 8.42493C15.0867 9.15974 14.844 9.79982 14.5162 10.3234C14.2148 10.806 13.8307 11.2063 13.3746 11.5164C12.9391 11.8111 12.4219 12.0348 11.8369 12.178C11.2701 12.3187 10.6238 12.3897 9.91505 12.3897H9.4584C9.13196 12.3897 8.81479 12.5018 8.56579 12.7028C8.31609 12.908 8.15103 13.1883 8.10039 13.4949L8.06587 13.6734L7.48779 17.1658L7.46168 17.2939C7.45467 17.3345 7.44276 17.3548 7.42523 17.3685C7.40964 17.381 7.38721 17.3893 7.36531 17.3893H4.54571Z" fill="#28356A"/>
<path fill-rule="evenodd" clip-rule="evenodd" d="M14.418 4.57324C14.4007 4.68001 14.3805 4.78911 14.3581 4.90122C13.5843 8.68955 10.9368 9.99827 7.55559 9.99827H5.83398C5.42044 9.99827 5.07191 10.2845 5.0076 10.6734L3.87651 17.5144C3.83463 17.7699 4.04105 18 4.31125 18H7.36477C7.72627 18 8.03344 17.7495 8.09039 17.4095L8.12035 17.2617L8.69528 13.7829L8.73225 13.5921C8.7885 13.2509 9.09637 13.0003 9.45787 13.0003H9.91451C12.8729 13.0003 15.1889 11.8552 15.8658 8.54101C16.1484 7.1566 16.0021 6.00059 15.2539 5.18759C15.0275 4.94248 14.7466 4.73898 14.418 4.57324Z" fill="#019DDE"/>
<path fill-rule="evenodd" clip-rule="evenodd" d="M13.6089 4.2658C13.4906 4.23288 13.3686 4.20314 13.2435 4.17624C13.1177 4.15001 12.9889 4.12679 12.8563 4.1064C12.3921 4.03489 11.8834 4.00098 11.3386 4.00098H6.73942C6.62604 4.00098 6.51845 4.02537 6.42225 4.06948C6.21005 4.16672 6.05252 4.35819 6.01432 4.5926L5.03585 10.5015L5.00781 10.6737C5.07212 10.2848 5.42065 9.99858 5.83419 9.99858H7.5558C10.937 9.99858 13.5845 8.68919 14.3583 4.90153C14.3815 4.78942 14.4009 4.68032 14.4183 4.57355C14.2225 4.47448 14.0105 4.38977 13.7822 4.31759C13.7258 4.29971 13.6676 4.2825 13.6089 4.2658Z" fill="#00164C"/>
<path fill-rule="evenodd" clip-rule="evenodd" d="M6.0143 4.59231C6.0525 4.3579 6.21003 4.16643 6.42223 4.06986C6.51913 4.02558 6.62602 4.00119 6.73939 4.00119H11.3386C11.8834 4.00119 12.3921 4.03527 12.8562 4.10678C12.9889 4.127 13.1177 4.15039 13.2435 4.17662C13.3686 4.20335 13.4906 4.23326 13.6089 4.26601C13.6676 4.28271 13.7257 4.30009 13.7827 4.3173C14.011 4.38948 14.2232 4.47485 14.4189 4.57326C14.6492 3.17332 14.417 2.22013 13.6232 1.35701C12.748 0.406668 11.1685 0 9.1472 0H3.27916C2.86633 0 2.51412 0.286205 2.45033 0.675831L0.00625497 15.4477C-0.0419327 15.7399 0.19445 16.0036 0.503552 16.0036H4.12622L6.0143 4.59231Z" fill="#012F86"/>
</svg>
