<svg width="18" height="18" viewBox="0 0 18 18" fill="none" xmlns="http://www.w3.org/2000/svg">
<path d="M10.2093 2.93872L11.4412 5.24537C11.6092 5.56647 12.0571 5.87446 12.4351 5.93343L14.6679 6.28074C16.0957 6.50354 16.4317 7.47339 15.4028 8.43012L13.667 10.0553C13.373 10.3305 13.212 10.8613 13.303 11.2414L13.7999 13.2531C14.1919 14.8455 13.289 15.4615 11.7842 14.6293L9.6914 13.4694C9.31344 13.2597 8.69051 13.2597 8.30556 13.4694L6.21279 14.6293C4.71495 15.4615 3.80505 14.8389 4.19701 13.2531L4.69395 11.2414C4.78494 10.8613 4.62396 10.3305 4.33 10.0553L2.59419 8.43012C1.5723 7.47339 1.90126 6.50354 3.32911 6.28074L5.56186 5.93343C5.93282 5.87446 6.38077 5.56647 6.54875 5.24537L7.78061 2.93872C8.45254 1.68709 9.54442 1.68709 10.2093 2.93872Z" fill="#ED6C3C"/>
</svg>
