<svg width="18" height="18" viewBox="0 0 18 18" fill="none" xmlns="http://www.w3.org/2000/svg">
<path d="M14.895 6.06818C14.895 6.38318 14.8725 6.69068 14.835 6.98318C14.49 6.83318 14.115 6.75068 13.7175 6.75068C12.8025 6.75068 11.9925 7.19317 11.49 7.86817C10.98 7.19317 10.17 6.75068 9.255 6.75068C7.7175 6.75068 6.4725 8.00317 6.4725 9.55567C6.4725 11.5657 7.5375 13.1032 8.7225 14.1457C8.685 14.1682 8.64751 14.1757 8.61001 14.1907C8.38501 14.2732 8.01 14.2732 7.785 14.1907C5.8425 13.5232 1.5 10.7632 1.5 6.06818C1.5 3.99818 3.16499 2.32568 5.21999 2.32568C6.44249 2.32568 7.52249 2.91068 8.19749 3.81818C8.87999 2.91068 9.96 2.32568 11.175 2.32568C13.23 2.32568 14.895 3.99818 14.895 6.06818Z" stroke="#FFFF" stroke-width="1.5" stroke-linecap="round" stroke-linejoin="round"/>
<path d="M16.5011 9.55548C16.5011 13.0655 13.2536 15.1355 11.7986 15.6305C11.6261 15.6905 11.3486 15.6905 11.1761 15.6305C10.5536 15.4205 9.60113 14.918 8.72363 14.1455C7.53863 13.103 6.47363 11.5655 6.47363 9.55548C6.47363 8.00298 7.71863 6.75049 9.25613 6.75049C10.1711 6.75049 10.9811 7.19298 11.4911 7.86798C11.9936 7.19298 12.8036 6.75049 13.7186 6.75049C14.1161 6.75049 14.4911 6.83299 14.8361 6.98299C15.8186 7.41799 16.5011 8.40048 16.5011 9.55548Z" stroke="#FFFF" stroke-width="1.125" stroke-linecap="round" stroke-linejoin="round"/>
</svg>
