<svg width="25" height="24" viewBox="0 0 25 24" fill="none" xmlns="http://www.w3.org/2000/svg">
<path d="M12.5 24C19.1274 24 24.5 18.6274 24.5 12C24.5 5.37258 19.1274 0 12.5 0C5.87258 0 0.5 5.37258 0.5 12C0.5 18.6274 5.87258 24 12.5 24Z" fill="black"/>
<path d="M15.2378 5.48416L14.7288 5.6417C14.6756 5.46883 14.5971 5.25648 14.4852 5.04316C14.1245 4.35508 13.5965 3.99086 12.9582 3.98992H12.9561C12.9118 3.98992 12.8677 3.99409 12.8236 3.99808C12.8049 3.97548 12.7859 3.95308 12.7659 3.9317C12.488 3.63428 12.1312 3.48939 11.7041 3.50191C10.8797 3.52553 10.0591 4.12084 9.39339 5.17806C8.92483 5.92216 8.56886 6.85689 8.46766 7.58036C7.52125 7.87342 6.85905 8.0785 6.84475 8.083C6.367 8.23291 6.352 8.24791 6.28938 8.69805C6.24194 9.03878 4.99207 18.705 4.99207 18.705L15.3633 20.4985V5.46292C15.3122 5.4662 15.2665 5.47572 15.2378 5.48416ZM12.843 6.22567C12.2599 6.40618 11.6769 6.58671 11.0939 6.76727C11.2631 6.11992 11.5834 5.47544 11.977 5.05319C12.1235 4.89611 12.3283 4.72089 12.5709 4.62081C12.7991 5.09627 12.8485 5.77033 12.843 6.22567ZM11.7199 4.05048C11.9135 4.04645 12.0765 4.08892 12.2157 4.18052C11.9931 4.29611 11.7777 4.46233 11.5757 4.67898C11.052 5.24069 10.651 6.11284 10.491 6.95392L9.05453 7.39872C9.3378 6.07417 10.4477 4.08705 11.7199 4.05048ZM10.1159 11.594C10.1716 12.4763 12.4927 12.6691 12.6232 14.7356C12.7258 16.3615 11.7608 17.4736 10.3703 17.5614C8.70166 17.6667 7.78282 16.6821 7.78282 16.6821L8.13639 15.1778C8.13639 15.1778 9.06105 15.8755 9.80121 15.8287C10.2847 15.7982 10.4575 15.405 10.4399 15.1269C10.3672 13.9759 8.47713 14.0437 8.35774 12.1526C8.25724 10.561 9.30236 8.94859 11.6085 8.80295C12.4971 8.74684 12.9521 8.97372 12.9521 8.97372L12.4247 10.9465C12.4247 10.9465 11.8365 10.6787 11.1391 10.7227C10.1166 10.7873 10.1057 11.4323 10.1159 11.594ZM13.391 6.05598C13.3849 5.63856 13.3351 5.05792 13.1406 4.55598C13.7661 4.67453 14.074 5.38225 14.204 5.80422L13.391 6.05598ZM15.7063 20.4577L20.0088 19.3882C20.0088 19.3882 18.1564 6.86364 18.1446 6.77772C18.1329 6.6918 18.0576 6.64431 17.9956 6.63911C17.9335 6.63395 16.7223 6.61548 16.7223 6.61548C16.7223 6.61548 15.9838 5.89825 15.7063 5.62689V20.4577Z" fill="white"/>
</svg>
