<svg width="18" height="18" viewBox="0 0 18 18" fill="none" xmlns="http://www.w3.org/2000/svg">
<path d="M13.5 14.1448H12.93C12.33 14.1448 11.76 14.3773 11.34 14.7973L10.0575 16.0648C9.4725 16.6423 8.52 16.6423 7.935 16.0648L6.6525 14.7973C6.2325 14.3773 5.655 14.1448 5.0625 14.1448H4.5C3.255 14.1448 2.25 13.1473 2.25 11.9173V3.7348C2.25 2.5048 3.255 1.50732 4.5 1.50732H13.5C14.745 1.50732 15.75 2.5048 15.75 3.7348V11.9173C15.75 13.1398 14.745 14.1448 13.5 14.1448Z" stroke="#FFFFFF" stroke-width="1.5" stroke-miterlimit="10" stroke-linecap="round" stroke-linejoin="round"/>
<path d="M5.25 6.87057C5.25 6.17307 5.82 5.60303 6.5175 5.60303C7.215 5.60303 7.785 6.17307 7.785 6.87057C7.785 8.28057 5.7825 8.43057 5.34 9.77307C5.25 10.0506 5.4825 10.3281 5.775 10.3281H7.785" stroke="#FFFFFF" stroke-width="1.5" stroke-linecap="round" stroke-linejoin="round"/>
<path d="M12.0298 10.3206V6.03816C12.0298 5.84316 11.9023 5.67062 11.7148 5.61812C11.5273 5.56562 11.3248 5.64062 11.2198 5.80562C10.6798 6.67562 10.0948 7.66563 9.58482 8.53563C9.50232 8.67813 9.50232 8.86563 9.58482 9.00813C9.66732 9.15063 9.82483 9.24059 9.99733 9.24059H12.7498" stroke="#FFFFFF" stroke-width="1.5" stroke-linecap="round" stroke-linejoin="round"/>
</svg>
