<svg width="25" height="25" viewBox="0 0 25 25" fill="none" xmlns="http://www.w3.org/2000/svg">
<path d="M9.5 22.5H15.5C20.5 22.5 22.5 20.5 22.5 15.5V9.5C22.5 4.5 20.5 2.5 15.5 2.5H9.5C4.5 2.5 2.5 4.5 2.5 9.5V15.5C2.5 20.5 4.5 22.5 9.5 22.5Z" stroke="#9A9A9A" stroke-width="1.5" stroke-linecap="round" stroke-linejoin="round"/>
<path d="M9.5 10.5C10.6046 10.5 11.5 9.60457 11.5 8.5C11.5 7.39543 10.6046 6.5 9.5 6.5C8.39543 6.5 7.5 7.39543 7.5 8.5C7.5 9.60457 8.39543 10.5 9.5 10.5Z" stroke="#9A9A9A" stroke-width="1.5" stroke-linecap="round" stroke-linejoin="round"/>
<path d="M3.17188 19.4505L8.10187 16.1405C8.89187 15.6105 10.0319 15.6705 10.7419 16.2805L11.0719 16.5705C11.8519 17.2405 13.1119 17.2405 13.8919 16.5705L18.0519 13.0005C18.8319 12.3305 20.0919 12.3305 20.8719 13.0005L22.5019 14.4005" stroke="#9A9A9A" stroke-width="1.5" stroke-linecap="round" stroke-linejoin="round"/>
</svg>
